<svg width="512" height="512" viewBox="0 0 512 512" fill="none" xmlns="http://www.w3.org/2000/svg">
  <!-- 배경 -->
  <rect width="512" height="512" rx="64" fill="#10b981"/>
  
  <!-- 배드민턴 라켓 -->
  <g transform="translate(128, 64)">
    <!-- 라켓 헤드 -->
    <ellipse cx="128" cy="128" rx="80" ry="120" stroke="white" stroke-width="12" fill="none"/>
    
    <!-- 라켓 스트링 (가로) -->
    <line x1="68" y1="80" x2="188" y2="80" stroke="white" stroke-width="2"/>
    <line x1="68" y1="110" x2="188" y2="110" stroke="white" stroke-width="2"/>
    <line x1="68" y1="140" x2="188" y2="140" stroke="white" stroke-width="2"/>
    <line x1="68" y1="170" x2="188" y2="170" stroke="white" stroke-width="2"/>
    
    <!-- 라켓 스트링 (세로) -->
    <line x1="90" y1="40" x2="90" y2="216" stroke="white" stroke-width="2"/>
    <line x1="110" y1="25" x2="110" y2="231" stroke="white" stroke-width="2"/>
    <line x1="128" y1="8" x2="128" y2="248" stroke="white" stroke-width="2"/>
    <line x1="146" y1="25" x2="146" y2="231" stroke="white" stroke-width="2"/>
    <line x1="166" y1="40" x2="166" y2="216" stroke="white" stroke-width="2"/>
    
    <!-- 라켓 손잡이 -->
    <rect x="118" y="248" width="20" height="120" rx="10" fill="white"/>
    
    <!-- 손잡이 그립 -->
    <rect x="120" y="260" width="16" height="8" fill="#10b981"/>
    <rect x="120" y="280" width="16" height="8" fill="#10b981"/>
    <rect x="120" y="300" width="16" height="8" fill="#10b981"/>
    <rect x="120" y="320" width="16" height="8" fill="#10b981"/>
    <rect x="120" y="340" width="16" height="8" fill="#10b981"/>
  </g>
  
  <!-- 셔틀콕 -->
  <g transform="translate(320, 320)">
    <!-- 셔틀콕 몸체 -->
    <ellipse cx="32" cy="48" rx="16" ry="24" fill="white"/>
    
    <!-- 셔틀콕 깃털 -->
    <path d="M16 24 L8 8 L16 16 L24 8 L32 16 L40 8 L48 16 L56 8 L48 24" stroke="white" stroke-width="2" fill="none"/>
    <path d="M16 32 L8 16 L16 24 L24 16 L32 24 L40 16 L48 24 L56 16 L48 32" stroke="white" stroke-width="2" fill="none"/>
  </g>
</svg>
